<?xml version="1.0" standalone="no"?>
<!DOCTYPE svg PUBLIC "-//W3C//DTD SVG 20010904//EN"
 "http://www.w3.org/TR/2001/REC-SVG-20010904/DTD/svg10.dtd">
<svg version="1.0" xmlns="http://www.w3.org/2000/svg"
 width="318.000000pt" height="87.000000pt" viewBox="0 0 318.000000 87.000000"
 preserveAspectRatio="xMidYMid meet">

<g transform="translate(0.000000,87.000000) scale(0.100000,-0.100000)"
fill="#000000" stroke="none">
<path d="M0 435 l0 -435 1585 0 1585 0 0 435 0 435 -1585 0 -1585 0 0 -435z
m1072 280 c104 -43 159 -139 160 -279 0 -98 -22 -163 -78 -225 -56 -62 -107
-84 -200 -83 -159 0 -261 100 -272 267 -13 213 114 357 300 339 32 -3 73 -11
90 -19z m-442 -74 c0 -87 -1 -89 -25 -93 -14 -3 -36 -3 -50 0 -22 4 -25 9 -25
47 l0 43 -44 4 -45 3 -3 -196 c-2 -144 -7 -200 -16 -212 -12 -14 -8 -16 35
-19 l48 -3 0 -40 0 -40 -125 0 -125 0 0 40 c0 32 4 40 20 43 44 9 45 15 45
223 l0 199 -45 0 -45 0 0 -45 0 -45 -50 0 -50 0 0 90 0 90 250 0 250 0 0 -89z
m979 -101 c62 -105 117 -193 122 -196 5 -3 9 54 9 128 0 144 -6 164 -50 170
-22 3 -25 8 -25 43 l0 40 118 3 117 3 0 -46 c0 -45 0 -45 -35 -45 l-35 0 0
-210 0 -210 35 0 c35 0 35 0 35 -45 l0 -46 -82 3 -83 3 -120 200 -120 200 -5
-141 c-3 -96 -9 -146 -18 -157 -12 -14 -8 -16 35 -19 l48 -3 3 -43 3 -42 -121
0 -121 0 3 43 c2 34 7 43 25 45 41 6 44 20 41 223 l-3 194 -30 5 c-27 5 -30 9
-33 48 l-3 42 88 0 88 0 114 -190z m811 110 l0 -80 -45 0 c-45 0 -45 0 -45 34
l0 34 -76 4 c-42 2 -78 1 -80 -1 -2 -2 -4 -37 -4 -77 l0 -73 83 -3 82 -3 0
-40 0 -40 -82 -3 -83 -3 0 -77 c0 -47 -5 -83 -12 -90 -9 -9 10 -12 85 -12 l97
0 0 41 0 40 48 -3 47 -3 0 -80 0 -80 -223 -3 -223 -2 3 42 c2 34 7 44 23 46
39 8 45 22 45 103 0 73 -1 78 -22 81 -19 2 -24 10 -26 46 -3 39 -2 42 23 42
26 0 26 0 23 72 -3 72 -3 73 -33 78 -27 5 -30 9 -33 48 l-3 42 215 0 216 0 0
-80z m467 51 c62 -27 125 -92 144 -147 19 -54 17 -199 -4 -246 -38 -84 -119
-147 -215 -167 -29 -6 -109 -11 -178 -11 l-125 0 3 43 c2 34 7 43 25 45 41 6
44 20 41 223 l-3 194 -30 5 c-27 5 -30 9 -33 49 l-3 43 163 -4 c142 -4 170 -7
215 -27z"/>
<path d="M906 630 c-35 -11 -72 -45 -94 -85 -24 -44 -23 -178 2 -233 36 -81
146 -113 225 -67 55 32 76 85 76 190 0 110 -18 149 -85 183 -46 23 -76 26
-124 12z"/>
<path d="M2695 641 c-3 -2 -5 -93 -5 -201 0 -139 -3 -199 -12 -208 -9 -9 1
-12 45 -12 60 0 118 18 150 48 90 81 76 290 -23 347 -32 18 -144 37 -155 26z"/>
</g>
</svg>
