<?xml version="1.0" standalone="no"?>
<!DOCTYPE svg PUBLIC "-//W3C//DTD SVG 20010904//EN"
 "http://www.w3.org/TR/2001/REC-SVG-20010904/DTD/svg10.dtd">
<svg version="1.0" xmlns="http://www.w3.org/2000/svg"
 width="322.000000pt" height="320.000000pt" viewBox="0 0 322.000000 320.000000"
 preserveAspectRatio="xMidYMid meet">

<g transform="translate(0.000000,320.000000) scale(0.100000,-0.100000)"
fill="#000000" stroke="none">
<path d="M1463 3159 c-203 -19 -370 -66 -558 -158 -158 -78 -277 -163 -405
-291 -224 -224 -363 -482 -432 -803 -18 -84 -22 -135 -22 -292 0 -198 6 -247
51 -418 l26 -97 564 2 565 3 84 193 c46 106 84 197 84 202 0 6 -84 11 -208 12
l-208 3 210 555 211 555 378 3 c207 1 377 -1 377 -6 0 -4 -110 -161 -245 -347
-134 -187 -244 -343 -245 -347 0 -4 110 -9 245 -10 l246 -3 -297 -340 c-163
-187 -323 -370 -356 -407 l-60 -68 800 0 799 0 26 98 c38 144 47 203 54 352
22 520 -227 1027 -652 1329 -114 80 -321 181 -451 220 -179 52 -407 76 -581
60z"/>
<path d="M1510 907 c-3 -3 -4 -57 -2 -121 3 -91 6 -116 17 -116 11 0 15 19 17
79 l3 79 68 -79 c38 -43 73 -79 78 -79 5 0 9 52 9 115 0 96 -3 115 -15 115
-12 0 -15 -16 -15 -81 l0 -82 -42 49 c-79 91 -113 125 -118 121z"/>
<path d="M1050 890 c0 -5 16 -10 35 -10 l35 0 0 -105 c0 -93 2 -105 18 -105
15 0 17 12 17 102 l0 103 38 3 c73 6 35 22 -53 22 -53 0 -90 -4 -90 -10z"/>
<path d="M1287 880 c-53 -42 -59 -133 -12 -184 19 -20 33 -26 67 -26 69 1 108
45 108 123 0 40 -5 53 -29 78 -36 36 -95 40 -134 9z m88 -6 c21 -8 45 -56 45
-89 0 -14 -7 -39 -15 -54 -39 -77 -125 -39 -125 54 0 69 43 109 95 89z"/>
<path d="M1780 785 l0 -115 60 0 c33 0 60 4 60 10 0 6 -21 10 -46 10 l-45 0 3
43 c3 39 5 42 36 45 43 4 41 22 -3 22 -34 0 -35 1 -35 40 l0 40 45 0 c25 0 45
5 45 10 0 6 -27 10 -60 10 l-60 0 0 -115z"/>
<path d="M1960 785 l0 -115 56 0 c30 0 64 5 75 10 53 29 66 138 23 189 -24 29
-31 31 -90 31 l-64 0 0 -115z m105 89 c21 -8 45 -56 45 -89 0 -33 -24 -81 -45
-89 -9 -3 -30 -6 -46 -6 l-29 0 0 95 0 95 29 0 c16 0 37 -3 46 -6z"/>
<path d="M570 440 c143 -126 362 -249 550 -310 294 -96 656 -96 950 0 188 61
407 184 550 310 l45 39 -1070 0 -1070 0 45 -39z"/>
</g>
</svg>
